<svg id="Layer_1" data-name="Layer 1" xmlns="http://www.w3.org/2000/svg" viewBox="0 0 1033.77 278.91"><defs><style>.cls-1{fill:#7bc144;}.cls-2{font-size:132.59px;fill:#231f20;font-family:Poppins-Bold, Poppins;font-weight:700;}.cls-3{font-family:Poppins-Regular, Poppins;font-weight:400;}</style></defs><title>logo</title><path class="cls-1" d="M210.87,160.16c0,32.7.07,64.88-.08,97.42H23.56v-169l93.28-52.13,93.69,52.25v38.92L116.58,76.84,61.16,109V220.52h6.17c.31-2.86.58-5.43.94-8.77l12.54-6.63v15.45H97l16-9.34c.49,3.68.84,6.37,1.24,9.41H172.8c1-6.56.36-13.1.47-19.58s0-13.18,0-19.76V140.81Z"/><path class="cls-1" d="M113.26,181.16l-12.58,6.59c-1.41-5.43-.75-10.29-.5-15.61,2-1.11,4-2.3,6.1-3.38s4.23-2,7-3.32Z"/><path class="cls-1" d="M113.44,111.69l-13.06,6.76v-15.9l13.06-6.85Z"/><path class="cls-1" d="M113.48,188.2v15.91l-12.75,6.73c-1.4-5.51-.86-10.19-.56-15.59Z"/><path class="cls-1" d="M113.3,134.91l-12.91,6.68v-16L113.3,119Z"/><path class="cls-1" d="M100.29,164.87V148.82l13-6.78v15.9Z"/><path class="cls-1" d="M96.45,104.6v15.89L84.1,127.06V111Z"/><path class="cls-1" d="M96.53,189.89l-12.37,6.33v-16L96.53,174Z"/><path class="cls-1" d="M84.06,157.18l11.86-6.11c1.65,5.33.79,10.2.69,15.58L84.06,173.3Z"/><path class="cls-1" d="M83.91,149.94V134.07l12.63-6.35v15.7c-1.85,1.07-3.86,2.3-6,3.4C88.68,147.81,86.7,148.65,83.91,149.94Z"/><path class="cls-1" d="M96.56,197v16L84,219.43v-16Z"/><path class="cls-1" d="M68.21,119.27l12-6.37v15.92l-12,6.43Z"/><path class="cls-1" d="M80.69,198.1c-4.24,2.18-8.09,4.15-12.5,6.43V188.64l11.48-6C81.7,187.76,80.44,192.66,80.69,198.1Z"/><path class="cls-1" d="M68.07,142.42,80.39,136v15.94l-12.28,6.53A126.09,126.09,0,0,1,68.07,142.42Z"/><path class="cls-1" d="M80.59,159.06V175l-12.42,6.48v-16Z"/><text class="cls-2" transform="translate(229.53 210.84)">Easy<tspan class="cls-3" x="318.73" y="0">homes</tspan></text></svg>