<svg width="20" height="20" viewBox="0 0 20 20" fill="none" xmlns="http://www.w3.org/2000/svg">
<path d="M9.62956 19.9493C7.5339 19.9493 5.44297 19.9556 3.35001 19.9493C2.60097 19.9504 1.87342 19.6904 1.2847 19.2112C0.695992 18.732 0.280454 18.0615 0.105121 17.308C0.0387563 17.0259 0.00516846 16.7366 0.00507015 16.4463C-0.00169005 12.365 -0.00169005 8.2846 0.00507015 4.20517C0.00507015 2.23051 1.48623 0.69723 3.39125 0.695131C7.55148 0.690002 11.7113 0.690002 15.8706 0.695131C17.7742 0.695131 19.2547 2.22841 19.2574 4.19818C19.2619 8.2804 19.2619 12.3622 19.2574 16.4435C19.2574 18.4125 17.7749 19.9409 15.8706 19.9479C13.7891 19.9542 11.7097 19.9493 9.62956 19.9493ZM6.42861 11.433C6.49621 11.5519 6.53745 11.6289 6.57868 11.7072C7.11342 12.7201 7.6495 13.7357 8.17882 14.7486C8.25859 14.9011 8.35324 14.9703 8.52494 14.9668C8.97923 14.957 9.43419 14.9668 9.88848 14.9619C9.96549 14.9572 10.0422 14.9483 10.1183 14.9354C10.0642 14.8318 10.0291 14.7584 9.98853 14.6877C9.20254 13.3065 8.41385 11.9254 7.62246 10.5447C7.58245 10.4877 7.5609 10.4192 7.5609 10.3488C7.5609 10.2784 7.58245 10.2099 7.62246 10.1529C8.35752 8.86028 9.08762 7.56459 9.81276 6.26587C9.85062 6.19592 9.88036 6.12597 9.9243 6.02455C9.82493 6.01895 9.76071 6.01196 9.69649 6.01196C9.30845 6.01196 8.92042 6.02105 8.53306 6.00776C8.3458 6.00077 8.24237 6.07001 8.15787 6.24209C7.6664 7.24656 7.16479 8.24683 6.66657 9.2499C6.63141 9.31985 6.5922 9.38979 6.53677 9.48772C6.48201 9.3842 6.44618 9.31985 6.41374 9.25409C5.91619 8.25942 5.41458 7.26754 4.92649 6.26867C4.8305 6.07211 4.7149 6.00076 4.50533 6.00916C4.08417 6.02455 3.66301 6.01336 3.24185 6.01406C3.17425 6.01406 3.10124 6.02105 2.99848 6.02665C3.05865 6.14136 3.10124 6.2246 3.14653 6.30644C3.87438 7.63454 4.60403 8.96241 5.33548 10.29C5.37285 10.3449 5.39239 10.4107 5.3913 10.4778C5.39021 10.545 5.36853 10.61 5.3294 10.6636C4.55513 12.0024 3.78312 13.3435 3.01336 14.687C2.97077 14.7612 2.93223 14.8381 2.87342 14.9479C2.98361 14.9542 3.05459 14.9626 3.1249 14.9626C3.49942 14.9626 3.87461 14.9465 4.24777 14.9689C4.51074 14.9843 4.65338 14.8913 4.77709 14.6458C5.27397 13.6434 5.79112 12.6529 6.30287 11.6575C6.33667 11.5932 6.37385 11.5302 6.42861 11.433ZM14.6084 8.5574C14.5118 8.54621 14.4401 8.54061 14.3691 8.53012C13.011 8.32657 11.5806 9.15127 11.0343 10.4537C10.7524 11.1273 10.7207 11.8296 10.7964 12.5487C10.9241 13.7525 11.6258 14.6716 12.7379 14.9766C13.9412 15.3061 15.108 15.092 16.2404 14.6094C16.3505 14.5618 16.3695 14.4849 16.3364 14.3758C16.2153 13.9757 16.193 13.5658 16.1937 13.1482C16.2005 10.7412 16.1937 8.33496 16.1998 5.92802C16.1998 5.75175 16.1734 5.66501 15.972 5.6741C15.5853 5.69159 15.1966 5.68669 14.8092 5.6741C14.6483 5.66991 14.6064 5.72517 14.6064 5.88395C14.6132 6.69326 14.6064 7.50187 14.6064 8.31118L14.6084 8.5574Z" fill="#A4CADA"/>
<path d="M14.6133 11.8325C14.6133 12.4403 14.6065 13.0489 14.6173 13.6574C14.6214 13.8421 14.5585 13.9121 14.3902 13.9449C13.3566 14.1471 12.4595 13.5099 12.2438 12.3956C12.0938 11.617 12.2256 10.8931 12.717 10.2684C13.1362 9.7389 13.6844 9.56123 14.3307 9.68783C14.5281 9.72631 14.6241 9.81444 14.6173 10.0488C14.6011 10.6426 14.6133 11.2379 14.6133 11.8325Z" fill="#A4CADA"/>
</svg>
