<svg width="16" height="20" viewBox="0 0 16 20" fill="none" xmlns="http://www.w3.org/2000/svg">
<path d="M0 0H16C15.983 0.200999 15.9645 0.401998 15.948 0.603515C15.8219 2.16143 15.6957 3.71917 15.5696 5.27674C15.4561 6.67856 15.3423 8.08054 15.2282 9.4827C15.1043 11.0144 14.9803 12.5462 14.8564 14.0782C14.7571 15.3117 14.6559 16.5446 14.5613 17.7786C14.5476 17.9583 14.4861 18.0474 14.3196 18.0982C12.2614 18.7199 10.2051 19.3539 8.14685 19.9792C8.05042 20.0069 7.9491 20.0069 7.85268 19.9792C5.78972 19.3519 3.72818 18.7183 1.66427 18.091C1.51199 18.0449 1.4505 17.9651 1.43963 17.7983C1.40794 17.332 1.36585 16.8632 1.32801 16.3959C1.18046 14.5521 1.03274 12.7085 0.884869 10.8653C0.736997 9.02217 0.58676 7.17881 0.434158 5.33528L0 0ZM7.99976 3.67808H3.98215C3.69034 3.67808 3.39854 3.68118 3.10721 3.67808C2.98897 3.67808 2.93175 3.71797 2.94168 3.86043C2.97999 4.41939 3.01593 4.97887 3.04431 5.53835C3.05377 5.71656 3.11288 5.78753 3.28362 5.78494C3.96796 5.77303 4.6523 5.77354 5.33712 5.77147C7.1223 5.76491 8.90796 5.75783 10.6941 5.75023C10.8426 5.75023 10.8771 5.81084 10.8667 5.95745C10.8227 6.56822 10.784 7.1795 10.7471 7.79079C10.7386 7.92651 10.687 7.98868 10.5579 7.98868C10.3214 7.98868 10.0816 8.00215 9.84375 8.00526L3.50637 8.08762C3.2699 8.09073 3.26517 8.09177 3.28882 8.35338C3.33611 8.8595 3.38341 9.36459 3.4307 9.87071C3.46097 10.195 3.46002 10.196 3.76459 10.195L10.3001 10.1717C10.5517 10.1717 10.5569 10.1717 10.5309 10.4385C10.4472 11.3005 10.3578 12.162 10.2751 13.024C10.2609 13.1737 10.2065 13.2525 10.0679 13.2918C9.43419 13.4711 8.80423 13.6659 8.17002 13.8436C8.05583 13.8741 7.9366 13.8741 7.82241 13.8436C7.19435 13.6674 6.57007 13.4737 5.94201 13.297C5.79634 13.2556 5.73722 13.1768 5.72635 13.0173C5.69324 12.551 5.64311 12.0848 5.61568 11.615C5.60527 11.4316 5.53339 11.3849 5.37921 11.3865C4.84337 11.3922 4.30753 11.3932 3.77122 11.3865C3.60332 11.3865 3.55556 11.4507 3.57116 11.631C3.65913 12.6495 3.74189 13.6683 3.81946 14.6874C3.83364 14.877 3.89607 14.9703 4.07011 15.0221C5.31063 15.3899 6.54737 15.7727 7.78836 16.14C7.92456 16.1784 8.0674 16.1784 8.2036 16.14C9.43324 15.7774 10.6577 15.394 11.8883 15.0356C12.0964 14.9744 12.1583 14.8651 12.1749 14.6491C12.2695 13.4084 12.3707 12.1687 12.4714 10.9285C12.6606 8.60463 12.8498 6.28053 13.0389 3.95626C13.0616 3.67911 13.0593 3.67808 12.7977 3.67808H7.99976Z" fill="#A4CADA"/>
</svg>
