<svg width="25" height="25" viewBox="0 0 25 25" fill="none" xmlns="http://www.w3.org/2000/svg">
<g clipPath="url(#clip0_3_37)">
<path d="M21.8663 24.903H3.10406C3.05963 24.8858 3.01408 24.8716 2.96772 24.8606C1.56121 24.5973 0.652031 23.7772 0.226757 22.4121C0.174481 22.2451 0.145517 22.071 0.105957 21.9005V3.10943C0.122911 3.04291 0.141279 2.97214 0.155407 2.90138C0.290986 2.12305 0.695152 1.41715 1.29735 0.906911C1.89954 0.396671 2.66151 0.114508 3.45022 0.109684C9.47846 0.104023 15.505 0.104023 21.53 0.109684C22.4114 0.113585 23.2558 0.465789 23.8794 1.08976C24.5031 1.71373 24.8558 2.55905 24.8608 3.44203C24.8693 9.48633 24.8693 15.5302 24.8608 21.5735C24.8608 23.0455 23.8598 24.3454 22.4498 24.758C22.2576 24.816 22.0605 24.8556 21.8663 24.903ZM10.9603 16.0475C10.7788 16.0163 10.5555 15.9852 10.3351 15.9385C9.05436 15.6696 8.09149 15.0221 7.72697 13.6903C7.65301 13.4099 7.60151 13.124 7.57297 12.8354C7.47619 11.9275 7.6316 11.0847 8.24196 10.3636C8.26686 10.3268 8.28386 10.2852 8.29188 10.2415C8.29991 10.1977 8.29879 10.1528 8.28858 10.1095C8.13599 9.56323 8.17273 9.02754 8.32391 8.48689C8.38678 8.26257 8.49769 8.19605 8.72092 8.22365C9.32139 8.29866 9.83921 8.5711 10.338 8.88601C10.402 8.93129 10.4753 8.96165 10.5525 8.97487C10.6298 8.9881 10.709 8.98385 10.7844 8.96244C11.7881 8.70742 12.8366 8.68467 13.8503 8.89592C14.2467 8.97942 14.5568 8.96102 14.9008 8.72749C15.2938 8.456 15.7466 8.28386 16.2204 8.22577C16.4366 8.19958 16.5553 8.247 16.6182 8.48265C16.746 8.95819 16.8167 9.43656 16.6888 9.91423C16.6182 10.1683 16.6725 10.3388 16.8301 10.5391C17.3726 11.239 17.4404 12.0535 17.3719 12.9062C17.249 14.4255 16.4309 15.4445 14.9644 15.8451C14.6218 15.9385 14.2693 15.9951 13.9047 16.0722C14.2834 16.4848 14.3901 16.971 14.3879 17.4932C14.3851 18.1306 14.3823 18.7675 14.3795 19.4039C14.3795 19.849 14.5914 20.0117 15.0103 19.8702C19.2616 18.4308 21.4226 13.7299 19.5491 9.59791C17.8156 5.77658 13.2619 4.0124 9.42736 5.71289C6.6108 6.9619 4.97682 9.15633 4.78114 12.2474C4.59676 15.136 5.82949 17.4132 8.21935 19.0246C8.75271 19.3848 9.37508 19.619 9.9699 19.8808C10.268 20.0117 10.5414 19.8582 10.552 19.5836C10.569 19.1498 10.5562 18.7153 10.5562 18.2702C10.3182 18.2936 10.1041 18.324 9.89007 18.3339C8.98442 18.3742 8.22218 17.9857 7.89581 17.1203C7.73618 16.693 7.44178 16.3295 7.05727 16.085C6.94989 16.0142 6.88843 15.8727 6.80578 15.7651C6.94707 15.7311 7.08835 15.6943 7.22964 15.6639C7.25384 15.6637 7.27785 15.6682 7.30028 15.6774C7.78419 15.7793 8.10138 16.0949 8.35993 16.4919C8.84879 17.2342 9.60467 17.4642 10.4248 17.1288C10.4902 17.1055 10.5452 17.0599 10.5803 17C10.7159 16.6872 10.8346 16.3694 10.9603 16.0475Z" fill="#DBF66F"/>
</g>
<defs>
<clipPath id="clip0_3_37">
<rect width="25" height="25" fill="white"/>
</clipPath>
</defs>
</svg>
