<svg width="16" height="20" viewBox="0 0 16 20" fill="none" xmlns="http://www.w3.org/2000/svg">
<path d="M8.03567 20H7.96358L5.90411 19.2888C4.48437 18.7962 3.06447 18.3045 1.6444 17.8137C1.38088 17.7223 1.21088 17.5508 1.18604 17.2379C1.11785 16.3105 1.04965 15.3832 0.981458 14.4561C0.927877 13.7125 0.877705 12.9641 0.824611 12.2178C0.75804 11.284 0.690496 10.3502 0.621977 9.41637C0.56937 8.68335 0.518711 7.95034 0.466104 7.21732C0.400508 6.28422 0.33345 5.35007 0.264931 4.41485C0.211837 3.6558 0.152411 2.89622 0.0988293 2.13824C0.0632709 1.63893 0.0281995 1.1391 0.00140893 0.639267C-0.0132041 0.381117 0.0856775 0.173959 0.306335 0.0730363C0.428354 0.0225435 0.558248 -0.00145511 0.68871 0.00239028C5.5633 -0.00079676 10.4379 -0.00079676 15.3125 0.00239028C15.3612 0.00239028 15.4099 0.00239028 15.4562 0.00239028C15.7971 0.0278866 16.0183 0.284443 15.9988 0.659983C15.974 1.14707 15.9384 1.63362 15.9038 2.12018C15.8366 3.06726 15.7665 4.01381 15.6988 4.96089C15.6471 5.68063 15.5979 6.4009 15.5463 7.12064C15.4781 8.0679 15.4094 9.01481 15.3402 9.96136C15.2886 10.6811 15.2394 11.4014 15.1878 12.1216C15.1196 13.0682 15.0509 14.0149 14.9817 14.9618C14.9301 15.6821 14.8751 16.4018 14.8317 17.1221C14.8083 17.5125 14.6315 17.7292 14.2891 17.8434C13.1439 18.2259 12.0041 18.6269 10.8628 19.021C9.91978 19.3454 8.9774 19.6717 8.03567 20ZM3.43402 11.352C3.43402 11.4253 3.43158 11.4704 3.43402 11.5145C3.50806 12.5912 3.58502 13.6679 3.65419 14.7451C3.66295 14.8848 3.73894 14.9119 3.83344 14.9443C5.17394 15.4069 6.5125 15.8723 7.85593 16.3296C7.95131 16.3603 8.05281 16.3603 8.14819 16.3296C9.48479 15.8744 10.818 15.4096 12.1541 14.9528C12.2871 14.9071 12.3397 14.8423 12.349 14.6824C12.4025 13.7869 12.4683 12.8918 12.5331 11.9968C12.6115 10.9138 12.6933 9.83122 12.7727 8.74816C12.7864 8.5564 12.7956 8.36412 12.8083 8.14846H12.5584C10.2528 8.14846 7.94718 8.1497 5.64156 8.15218C5.48569 8.15218 5.43065 8.09906 5.42529 7.93546C5.41944 7.74105 5.3907 7.54717 5.37171 7.35117C5.323 6.84815 5.27429 6.34566 5.22071 5.8198H12.7036C12.7523 5.8198 12.801 5.81608 12.8468 5.8198C12.9442 5.8283 12.9841 5.78793 12.9929 5.67745C13.0231 5.21001 13.0611 4.74364 13.0947 4.27674C13.1093 4.07065 13.1191 3.86455 13.1317 3.64996H2.86411C2.87726 3.81515 2.89041 3.95644 2.90015 4.09774C2.96445 5.01932 3.02582 5.94038 3.09207 6.85984C3.16952 7.9429 3.25622 9.0249 3.32539 10.109C3.33757 10.3008 3.37751 10.3587 3.56017 10.3576C5.82422 10.3509 8.08811 10.3493 10.3518 10.3528H10.5637C10.5678 10.4 10.5698 10.4473 10.5696 10.4947C10.5145 11.2914 10.4561 12.0882 10.4064 12.8887C10.3976 13.0273 10.3577 13.0878 10.2291 13.124C9.54714 13.3173 8.87251 13.5255 8.193 13.7215C8.10715 13.7451 8.01728 13.7451 7.93143 13.7215C7.24023 13.5234 6.55147 13.3136 5.86027 13.1165C5.74337 13.0836 5.70927 13.0305 5.71073 12.9041C5.71657 12.4611 5.70683 12.0181 5.71609 11.5761C5.71998 11.4046 5.68491 11.327 5.51102 11.3435C5.33712 11.3599 5.153 11.3472 4.97521 11.3472L3.43402 11.352Z" fill="#A4CADA"/>
</svg>
