<svg width="20" height="20" viewBox="0 0 20 20" fill="none" xmlns="http://www.w3.org/2000/svg">
<path d="M19.2608 19.6835H0V0.422668H19.2608V19.6835ZM11.4519 16.2724C11.4493 16.2908 11.4493 16.3095 11.4519 16.3279C11.4631 16.357 11.4763 16.3853 11.4915 16.4125C11.7333 16.8608 12.0815 17.243 12.5054 17.5255C13.4824 18.1649 14.5584 18.295 15.6721 18.0506C17.2211 17.7104 17.9543 16.5882 17.6894 15.0233C17.5513 14.2056 17.0328 13.6573 16.3379 13.2762C15.8134 12.9889 15.254 12.7656 14.7176 12.4987C14.4693 12.3829 14.2345 12.24 14.0174 12.0727C13.771 11.8745 13.738 11.5806 13.8133 11.28C13.8443 11.1473 13.9147 11.027 14.0152 10.9349C14.1158 10.8429 14.2418 10.7833 14.3767 10.7642C14.8438 10.677 15.2612 10.7767 15.5657 11.1777C15.6437 11.2807 15.7163 11.3877 15.7996 11.5079L17.2171 10.5977C16.8062 9.85524 16.2263 9.36908 15.4079 9.20064C14.9174 9.09264 14.4094 9.09264 13.919 9.20064C13.022 9.40739 12.3462 9.89686 12.084 10.8091C11.8165 11.7418 11.9743 12.6077 12.66 13.3323C13.086 13.7828 13.6383 14.0385 14.1944 14.2862C14.6053 14.4691 15.0162 14.6534 15.4138 14.8622C15.748 15.0372 15.9482 15.3245 15.9026 15.7209C15.855 16.1344 15.5723 16.3457 15.1952 16.4547C14.3946 16.6866 13.5887 16.3847 13.0814 15.6621C13.0279 15.5874 12.9764 15.5108 12.9169 15.425L11.4519 16.2724ZM10.4828 9.2416H8.65709C8.65181 9.34002 8.64256 9.43183 8.64256 9.52365C8.64256 11.4132 8.64256 13.3028 8.64256 15.1924C8.64256 15.3675 8.64256 15.5432 8.62473 15.7176C8.59038 16.1139 8.39552 16.3715 8.07317 16.4646C7.5738 16.6093 7.13916 16.4646 6.83267 16.0452C6.72632 15.8999 6.63451 15.746 6.52552 15.5828L5.04326 16.4812C5.32267 17.0638 5.7038 17.5136 6.25866 17.8023C7.02555 18.1986 7.8367 18.2455 8.66436 18.0467C9.54354 17.8366 10.1176 17.2883 10.3514 16.4164C10.4348 16.1019 10.4779 15.7781 10.4795 15.4527C10.4908 13.4506 10.4855 11.4485 10.4855 9.44636L10.4828 9.2416Z" fill="#A4CADA"/>
</svg>
