<svg width="25" height="25" viewBox="0 0 25 25" fill="none" xmlns="http://www.w3.org/2000/svg">
<g clip-path="url(#clip0_3_41)">
<path d="M0.0996094 21.7151V3.26582C0.12716 3.12429 0.154005 2.98276 0.182969 2.84123C0.525589 1.18248 1.86993 0.0813751 3.56538 0.0813751C9.52627 0.0813751 15.4874 0.0827904 21.4488 0.0856211C21.7631 0.0873536 22.076 0.127756 22.3805 0.205922C23.9022 0.594424 24.899 1.92835 24.8997 3.56091C24.8997 9.41085 24.8997 15.2608 24.8997 21.1107C24.8997 21.3683 24.8856 21.6273 24.8608 21.8842C24.7941 22.5895 24.5031 23.2547 24.0307 23.7818C23.5582 24.309 22.9293 24.6703 22.2364 24.8125L21.7214 24.9214H3.29905C3.233 24.8953 3.16465 24.8754 3.09489 24.862C2.40219 24.7844 1.7513 24.4909 1.23404 24.0229C0.716785 23.5549 0.359268 22.936 0.211932 22.2536C0.173785 22.0738 0.136344 21.8943 0.0996094 21.7151ZM13.3516 11.0054C13.3516 10.7747 13.3516 10.5971 13.3516 10.4195C13.3467 10.0267 13.1482 9.81445 12.7575 9.81091C12.0388 9.80478 11.3201 9.80478 10.6015 9.81091C10.2136 9.81091 10.0208 10.0147 10.0201 10.3954C10.0201 13.502 10.0201 16.6086 10.0201 19.7152C10.0201 20.0974 10.2002 20.2757 10.5852 20.2764C11.2719 20.2764 11.9585 20.2764 12.6452 20.2764C13.1891 20.2764 13.3516 20.1158 13.3516 19.5688C13.3516 17.9751 13.346 16.3843 13.3551 14.7878C13.3551 14.1757 13.5233 13.6039 13.9055 13.1149C14.3074 12.6012 14.8655 12.4781 15.4716 12.5679C16.0495 12.6507 16.4225 13.0024 16.6288 13.5487C16.8216 14.0611 16.8202 14.5918 16.8202 15.1254C16.8202 16.6303 16.8202 18.1353 16.8202 19.6402C16.8202 20.0896 17.0102 20.2771 17.451 20.2771C18.1942 20.2771 18.9374 20.2771 19.6806 20.2771C20.0613 20.2771 20.2422 20.096 20.2422 19.711C20.2422 17.8824 20.2619 16.0538 20.2287 14.226C20.2144 13.5892 20.1307 12.9559 19.9794 12.3372C19.6813 11.1052 18.9854 10.1888 17.7089 9.83002C16.9041 9.60889 16.0571 9.59187 15.2441 9.78048C14.5165 9.9397 13.9118 10.3006 13.4611 10.9042C13.4271 10.9406 13.3905 10.9744 13.3516 11.0054ZM5.26435 15.056C5.26435 16.5657 5.26435 18.0777 5.26435 19.5921C5.26435 20.1108 5.43107 20.2778 5.94111 20.2778H7.90359C8.40728 20.2778 8.59731 20.0846 8.59731 19.5702C8.59731 16.5541 8.59731 13.5381 8.59731 10.5221C8.59731 10.0267 8.38538 9.80879 7.89087 9.80666C7.24519 9.80666 6.59927 9.80666 5.95312 9.80666C5.45862 9.80666 5.26223 10.0062 5.26152 10.4945C5.26294 12.015 5.26388 13.5355 5.26435 15.056ZM4.78327 6.83522C4.78327 8.01842 5.72848 8.99923 6.91317 8.99074C8.12046 8.98154 9.04095 8.08423 9.07344 6.85928C9.10523 5.66972 8.12399 4.70377 6.92306 4.70306C6.64225 4.70034 6.36371 4.75355 6.10361 4.8596C5.84351 4.96564 5.60704 5.12241 5.40795 5.3208C5.20886 5.51918 5.05111 5.75522 4.94387 6.0152C4.83663 6.27519 4.78204 6.55392 4.78327 6.83522Z" fill="#DBF66F"/>
</g>
<defs>
<clipPath id="clip0_3_41">
<rect width="25" height="25" fill="white"/>
</clipPath>
</defs>
</svg>
