<svg width="63" height="69" viewBox="0 0 63 69" fill="none" xmlns="http://www.w3.org/2000/svg">
<path d="M19.6154 0.978394V15.4495H2.88232V27.0232H19.6154V27.2927C19.7312 25.3705 20.0422 23.465 20.5438 21.6056C21.17 19.2343 22.3756 17.0552 24.0524 15.2635C25.7005 13.517 27.8974 12.1774 30.643 11.2448C31.5922 10.9263 32.5614 10.6705 33.5443 10.4794V3.23437L19.6154 0.978394Z" fill="#146284"/>
<path d="M19.3563 60.5071V48.0332C19.162 50.0008 18.6762 51.6422 17.9124 52.944C16.8814 54.6906 14.8123 55.5621 11.705 55.5585C10.1545 55.5536 8.60755 55.4129 7.08177 55.138C5.59759 54.8886 4.14074 54.4978 2.73117 53.9709L0.760986 64.798C2.58265 65.5311 4.45748 66.1249 6.36926 66.5742C8.42041 67.0702 10.9394 67.319 13.9261 67.3208C17.7334 67.3208 20.8821 66.8069 23.3722 65.7791C25.3925 64.9855 27.2179 63.7665 28.7241 62.2051C28.3598 62.1539 28.0089 62.1 27.6661 62.0407C24.118 61.4531 21.3481 60.9419 19.3563 60.5071Z" fill="#146284"/>
<path d="M60.7897 38.6723C59.6719 36.7234 58.0811 35.0865 56.1639 33.9124C54.1149 32.685 51.8701 31.818 49.5273 31.3492C46.9777 30.8136 44.3787 30.548 41.7734 30.5568C40.1663 30.5458 38.5599 30.6232 36.9613 30.7886C36.0356 30.8855 35.1157 31.0321 34.2057 31.2279C33.9736 31.2791 33.7496 31.3384 33.5445 31.3977V30.0878C33.524 28.887 33.749 27.6948 34.2057 26.5839C34.5525 25.76 35.0598 25.0133 35.6982 24.3872C37.1376 22.9497 39.6287 22.2309 43.1714 22.2309C45.5198 22.2311 47.8651 22.4022 50.1885 22.743C52.2269 23.0234 54.2316 23.5093 56.1719 24.1931L57.9478 12.9914C57.1382 12.7461 56.1234 12.4766 54.9089 12.1963C53.6944 11.916 52.3719 11.6572 50.9388 11.4497C49.5057 11.2421 47.997 11.0481 46.4074 10.8891C44.8178 10.73 43.2146 10.6627 41.5926 10.6627C39.1149 10.6448 36.6412 10.865 34.2057 11.3203C33.2238 11.5061 32.2555 11.7573 31.3072 12.0723C28.5633 13.0085 26.3664 14.348 24.7165 16.091C23.0397 17.8827 21.8342 20.0618 21.2079 22.4331C20.7054 24.2924 20.3935 26.1979 20.2768 28.1202C20.2147 28.9665 20.1851 29.8425 20.1851 30.7427V59.6769C22.1786 60.1118 24.9504 60.6239 28.5003 61.2132C28.8431 61.2725 29.1939 61.3237 29.5583 61.3777C33.483 61.8969 37.4394 62.1392 41.3983 62.1027C44.2988 62.1297 47.194 61.8478 50.0347 61.2618C52.4197 60.7829 54.6896 59.8484 56.7198 58.5098C58.5709 57.257 60.0541 55.5339 61.0164 53.5181C62.0186 51.4625 62.5179 48.9415 62.5143 45.9551C62.5179 43.0927 61.9431 40.6651 60.7897 38.6723ZM46.4857 50.1059C45.0247 50.9468 43.0149 51.3673 40.4564 51.3673C39.088 51.3673 37.7791 51.3403 36.5349 51.2756C35.4553 51.2217 34.5404 51.1462 33.836 51.0411L33.5418 50.9953V40.4486C33.7307 40.4081 33.9521 40.3677 34.2031 40.3246C34.6996 40.2437 35.3204 40.1628 36.068 40.0739C37.0913 39.9569 38.1201 39.8949 39.1501 39.8879C40.3837 39.8845 41.6162 39.9628 42.8395 40.1224C43.895 40.2506 44.9224 40.5501 45.8811 41.0092C46.7116 41.4107 47.4217 42.0233 47.9404 42.7854C48.4617 43.6222 48.7201 44.5956 48.6826 45.5804C48.6844 47.7582 47.9539 49.2667 46.4911 50.1059H46.4857Z" fill="#D6E869"/>
</svg>
