<svg width="20" height="20" viewBox="0 0 20 20" fill="none" xmlns="http://www.w3.org/2000/svg">
<path d="M9.8345 0.512207C10.0539 0.59587 10.2856 0.660941 10.4908 0.766476C10.9 0.977 11.1706 1.31329 11.4135 1.65942C11.8461 2.27186 12.1156 2.94553 12.3368 3.63397C12.4913 4.11517 12.6044 4.6073 12.7367 5.09452C12.7527 5.15412 12.775 5.21263 12.7985 5.28973C12.885 5.2684 12.9579 5.25091 13.0302 5.23505C13.6081 5.08577 14.181 4.9179 14.765 4.79103C15.5635 4.61715 16.3749 4.49903 17.2037 4.54223C17.7104 4.56848 18.2036 4.6516 18.6251 4.925C19.0886 5.22247 19.2802 5.62875 19.2431 6.128C19.2097 6.56545 19.0157 6.95423 18.7821 7.33099C18.4219 7.89351 17.9774 8.41038 17.4608 8.86754C16.996 9.28859 16.5004 9.68284 16.0189 10.0891C15.9991 10.1088 15.9805 10.1294 15.9633 10.1509L16.4577 10.5517C17.3365 11.2664 18.1696 12.0166 18.7722 12.9397C19.0293 13.3328 19.232 13.749 19.2585 14.2099C19.2876 14.7201 19.0379 15.1942 18.4496 15.4785C18.0683 15.6634 17.6523 15.7339 17.2247 15.7519C16.6413 15.7782 16.0659 15.7137 15.4942 15.6305C14.6127 15.5056 13.7472 15.3041 12.9103 15.029C12.8742 15.0194 12.8374 15.0114 12.8003 15.005C12.7775 15.0919 12.7521 15.1734 12.7336 15.256C12.5658 16.0496 12.3178 16.8283 11.9926 17.5827C11.7089 18.2279 11.3659 18.8447 10.7838 19.3325C10.0934 19.911 9.19424 19.9219 8.49342 19.3522C8.19977 19.106 7.95161 18.8205 7.75798 18.5062C7.38071 17.9019 7.09145 17.2577 6.89709 16.5891C6.7531 16.1178 6.63876 15.6393 6.5096 15.1641C6.49662 15.1165 6.47685 15.0701 6.45151 15.0001C6.35881 15.0269 6.27352 15.0487 6.19071 15.0755C5.16547 15.4074 4.09688 15.6231 3.01042 15.7175C2.4709 15.7656 1.93508 15.7804 1.40359 15.6699C1.00498 15.5863 0.633552 15.4474 0.361627 15.1597C-0.0283382 14.7474 -0.0709809 14.2761 0.0829038 13.7768C0.236789 13.2776 0.519838 12.8402 0.856036 12.4257C1.49135 11.6426 2.24718 10.958 3.07469 10.3336C3.14453 10.2789 3.21128 10.2242 3.29903 10.1558C3.22425 10.0853 3.16678 10.0257 3.10251 9.97211C2.73664 9.66753 2.36089 9.37061 2.0043 9.05783C1.41781 8.53726 0.888172 7.9724 0.477813 7.33044C0.218866 6.9258 0.0155406 6.49764 0.00874247 6.01809C0.00318037 5.4576 0.312186 5.06389 0.851092 4.80416C1.2392 4.61551 1.66563 4.55754 2.10009 4.53786C2.7558 4.50778 3.39791 4.58926 4.04003 4.7019C4.7687 4.83351 5.48675 5.0076 6.18947 5.22302C6.26919 5.24653 6.35015 5.26622 6.45089 5.29356C6.47623 5.23067 6.50157 5.18091 6.51269 5.12951C6.65669 4.60676 6.78029 4.07799 6.9453 3.5607C7.17211 2.87663 7.45392 2.21444 7.88282 1.60912C8.12076 1.27283 8.39762 0.958955 8.7913 0.756086C8.99586 0.650551 9.2307 0.592042 9.45195 0.512207H9.8345ZM7.16407 5.50681C7.197 5.52768 7.23125 5.54685 7.26666 5.56423C8.02311 5.86224 8.77894 6.16135 9.53847 6.45335C9.60937 6.47525 9.68696 6.47291 9.75601 6.44679C10.489 6.16409 11.2176 5.87263 11.95 5.58829C12.0624 5.54509 12.0896 5.49369 12.0668 5.38652C11.9149 4.64064 11.6967 3.90653 11.4141 3.19105C11.2238 2.72571 11.0198 2.26147 10.6904 1.85737C10.5428 1.66716 10.3675 1.49506 10.1688 1.34555C9.78815 1.07215 9.45381 1.088 9.07002 1.35868C8.65534 1.64958 8.40442 2.04985 8.18503 2.46652C7.88583 3.04789 7.65012 3.65324 7.48111 4.27429C7.36493 4.68112 7.26975 5.09069 7.16407 5.50681ZM15.3781 9.71729C15.4757 9.64019 15.5486 9.58113 15.6253 9.52426C16.399 8.93863 17.1221 8.30651 17.7308 7.57924C18.0126 7.24022 18.2734 6.88807 18.4193 6.48561C18.6702 5.79116 18.4626 5.40893 17.6585 5.24653C17.0164 5.11694 16.3768 5.19185 15.7427 5.27715C14.8663 5.3969 14.0166 5.61344 13.1792 5.86881C12.927 5.94591 12.9165 5.95848 12.9462 6.19088C13.0278 6.83667 13.1174 7.48191 13.1835 8.12879C13.1865 8.19316 13.2076 8.25585 13.2448 8.31122C13.282 8.36658 13.3342 8.41288 13.3967 8.44595C13.7873 8.68381 14.1754 8.92441 14.5592 9.17102C14.8311 9.34272 15.0962 9.52973 15.3781 9.71948V9.71729ZM2.44865 5.17326C1.87946 5.18529 1.46601 5.24489 1.23611 5.3466C0.831933 5.52486 0.671868 5.81795 0.763334 6.21275C0.850368 6.55573 1.00677 6.88196 1.22499 7.17569C1.89738 8.12606 2.82255 8.87629 3.75204 9.62105C3.84659 9.69706 3.9257 9.69159 4.03076 9.62105C4.65619 9.2113 5.28532 8.80611 5.91816 8.40548C5.97026 8.37425 6.01316 8.33244 6.04326 8.28354C6.07337 8.23465 6.08981 8.18009 6.09121 8.12442C6.16166 7.47152 6.23665 6.81862 6.31616 6.16573C6.34336 5.947 6.35263 5.947 6.12211 5.87045C5.3736 5.61972 4.59839 5.43652 3.80827 5.32363C3.30583 5.26129 2.8003 5.21318 2.44865 5.17326ZM15.3787 10.5638C15.1605 10.7114 14.9516 10.859 14.7353 10.9974C14.2823 11.2872 13.8256 11.5715 13.3708 11.8586C13.2787 11.9166 13.2014 11.9713 13.1854 12.0927C13.1124 12.7707 13.0253 13.4477 12.9425 14.1246C12.9184 14.3204 12.9264 14.3319 13.1334 14.398C14.1111 14.6977 15.103 14.9448 16.1339 15.0542C16.6561 15.1089 17.1783 15.1439 17.6937 15.0258C17.8707 14.984 18.0398 14.9196 18.1956 14.8344C18.2926 14.7818 18.3723 14.7075 18.4266 14.619C18.4808 14.5305 18.5077 14.4309 18.5046 14.3302C18.5163 13.9376 18.3464 13.5964 18.1338 13.2683C17.5881 12.4273 16.8359 11.7372 16.0399 11.0871C15.8323 10.9148 15.6117 10.7464 15.3787 10.5643V10.5638ZM3.88367 10.5638C3.73226 10.6824 3.57961 10.7929 3.4387 10.9143C2.98756 11.3036 2.52899 11.6869 2.097 12.0921C1.73684 12.4297 1.42241 12.8033 1.1601 13.2054C0.970986 13.4947 0.815865 13.7949 0.754064 14.1279C0.687937 14.4811 0.856035 14.7841 1.23117 14.9219C1.41497 14.9865 1.60596 15.0338 1.80097 15.063C2.35718 15.157 2.91834 15.0859 3.4696 15.011C4.39662 14.8858 5.29397 14.6572 6.17711 14.3822C6.22964 14.3658 6.27908 14.3428 6.32234 14.3275C6.32845 14.3121 6.3324 14.2961 6.33409 14.2799C6.25168 13.564 6.16928 12.8484 6.08688 12.1331C6.08273 12.0804 6.0647 12.0292 6.03423 11.9837C6.00375 11.9383 5.96168 11.8997 5.91137 11.8712C5.41696 11.5644 4.93305 11.2517 4.44606 10.9389C4.26128 10.8213 4.08205 10.6988 3.88491 10.5659L3.88367 10.5638ZM12.0705 14.7529C11.9907 14.7206 11.9085 14.6862 11.8233 14.6539C11.3622 14.4773 10.9 14.3034 10.4402 14.1235C10.2133 14.0349 9.99147 13.9371 9.76837 13.8419C9.72835 13.8226 9.68368 13.812 9.6381 13.8111C9.59252 13.8101 9.54735 13.8188 9.50634 13.8364C8.78409 14.1252 8.05978 14.4104 7.33341 14.6922C7.20981 14.7398 7.182 14.8054 7.20548 14.9109C7.43723 15.9581 7.73326 16.9888 8.26784 17.9529C8.46561 18.3083 8.70045 18.6419 9.05024 18.9032C9.40004 19.1646 9.79186 19.1837 10.1528 18.9344C10.2805 18.8458 10.3971 18.7453 10.5007 18.6347C10.8802 18.2356 11.1107 17.7598 11.3214 17.283C11.6669 16.4989 11.8838 15.6819 12.068 14.8579C12.0725 14.8238 12.0738 14.7894 12.0717 14.7551L12.0705 14.7529ZM12.5031 10.123C12.5031 9.70307 12.5031 9.28312 12.5031 8.86535C12.5072 8.81248 12.4942 8.75966 12.4658 8.71301C12.4374 8.66637 12.3946 8.6278 12.3424 8.60179C11.5198 8.13317 10.6657 7.71321 9.80422 7.30474C9.74753 7.27375 9.68197 7.25783 9.61534 7.2589C9.54872 7.25997 9.48385 7.27797 9.42847 7.31076C9.13368 7.46004 8.829 7.59401 8.53544 7.74821C7.99159 8.02982 7.4533 8.32018 6.91193 8.60507C6.86742 8.62361 6.82991 8.65314 6.80393 8.6901C6.77794 8.72706 6.76458 8.76988 6.76546 8.81341C6.75928 9.15134 6.73085 9.48872 6.7327 9.82665C6.7327 10.3467 6.76484 10.8656 6.76175 11.3856C6.76175 11.5557 6.8322 11.647 6.98918 11.7263C7.80454 12.1331 8.61537 12.546 9.42167 12.9648C9.48232 13.002 9.55433 13.0218 9.62808 13.0218C9.70184 13.0218 9.77385 13.002 9.8345 12.9648C10.6348 12.5503 11.4364 12.1375 12.2447 11.7361C12.3306 11.7002 12.4019 11.6419 12.449 11.5689C12.4961 11.4959 12.5167 11.4119 12.508 11.3282C12.5018 10.9274 12.5062 10.526 12.5062 10.1252L12.5031 10.123ZM12.4258 7.86851C12.3683 7.29162 12.3288 6.7448 12.1984 6.18815C11.5952 6.39758 11.0347 6.60755 10.4599 6.8662L12.4258 7.86851ZM6.81737 7.87562L8.75854 6.88315L8.75483 6.82847L7.03491 6.16245C6.96384 6.75301 6.89462 7.29545 6.82046 7.87781L6.81737 7.87562ZM13.257 11.1445C13.7848 10.8109 14.2953 10.5063 14.7662 10.1493C14.4974 9.9043 13.427 9.21969 13.257 9.17977V11.1445ZM12.4252 12.4158L10.4476 13.4258L12.1928 14.1017C12.3251 13.5324 12.3634 12.9878 12.4252 12.4158ZM7.04171 14.1082L8.75854 13.446V13.3963L6.82664 12.412C6.89833 12.9834 6.96755 13.5253 7.04171 14.1082ZM4.45286 10.1411C4.98002 10.4839 5.4664 10.8005 5.95215 11.1177L6.00839 11.092V10.6146C6.00839 10.4577 6.00839 10.3013 6.00839 10.1444C6.00839 9.98742 6.01581 9.81626 6.00839 9.6555C6.00098 9.49474 6.04609 9.3378 5.96699 9.15516L4.45286 10.1411Z" fill="#A4CADA"/>
<path d="M11.4493 10.1378C11.4277 11.0324 10.6706 11.7367 9.64227 11.7465C8.58485 11.7558 7.83212 10.9908 7.82285 10.1574C7.81296 9.29512 8.5966 8.52904 9.63053 8.53997C10.6855 8.55091 11.4129 9.25028 11.4493 10.1378ZM9.62188 11.0865C9.76455 11.0928 9.90716 11.0729 10.0407 11.0281C10.1743 10.9833 10.2959 10.9145 10.398 10.826C10.5 10.7376 10.5803 10.6314 10.6337 10.5142C10.6871 10.397 10.7125 10.2712 10.7083 10.1449C10.7083 9.52752 10.1633 9.19888 9.63053 9.19013C9.01623 9.18029 8.55704 9.68227 8.55086 10.1279C8.54407 10.6157 9.03291 11.122 9.62188 11.0865V11.0865Z" fill="#A4CADA"/>
</svg>
