<svg width="20" height="20" viewBox="0 0 20 20" fill="none" xmlns="http://www.w3.org/2000/svg">
<path d="M10.3789 19.8625H8.87593C8.62829 19.8283 8.38014 19.7977 8.133 19.7595C4.22498 19.1567 1.04331 16.1626 0.212982 12.302C0.122565 11.8805 0.0703243 11.4505 0 11.025V9.44556C0.0105486 9.3903 0.0251158 9.33554 0.0311436 9.28028C0.263214 7.0699 1.13172 5.14285 2.68237 3.5579C4.82324 1.36711 7.44935 0.389015 10.5069 0.640195C12.7091 0.821547 14.634 1.68762 16.2228 3.21379C18.5566 5.45481 19.5542 8.21377 19.1865 11.4344C18.7309 15.4372 15.6537 18.804 11.711 19.646C11.2725 19.7414 10.8234 19.7917 10.3789 19.8625ZM11.2117 15.6221C11.2233 15.6472 11.2343 15.6723 11.2454 15.6979C11.3369 15.6814 11.4266 15.6565 11.5136 15.6236C12.1802 15.3041 12.4283 14.5651 12.1164 13.8281C11.815 13.1168 11.2469 12.7094 10.5225 12.5115C9.76051 12.3025 8.99447 12.3703 8.23547 12.5426C8.10337 12.5722 8.01847 12.5577 7.91851 12.4632C7.66334 12.2231 7.39711 11.9945 7.13038 11.7675C6.62003 11.3334 6.08054 10.9305 5.60032 10.4659C4.99754 9.88362 4.78707 9.15972 5.08143 8.34991C5.19718 8.04563 5.35347 7.75836 5.54607 7.4959C5.95596 6.92371 6.50047 6.48415 7.08216 6.09934C8.62477 5.08256 10.2498 4.26874 12.134 4.11803C12.7794 4.0678 13.4139 4.11803 14.0101 4.39383C14.5627 4.64953 14.7882 5.10015 14.6892 5.69996C14.5958 6.26412 14.314 6.73382 13.9393 7.14978C12.9904 8.20473 11.7793 8.75733 10.3969 8.95827C9.5847 9.07432 8.80309 9.01906 8.17168 8.39412C8.15621 8.38125 8.13779 8.3724 8.11807 8.36837C8.09835 8.36434 8.07794 8.36525 8.05866 8.37101C8.04336 8.38526 8.03189 8.40312 8.02531 8.42296C8.01872 8.4428 8.01724 8.46398 8.02099 8.48455C8.07976 8.62018 8.12949 8.76838 8.22191 8.8789C8.52632 9.24361 8.92867 9.4541 9.3898 9.54905C9.87675 9.64382 10.3759 9.65875 10.8676 9.59326C11.9265 9.46666 12.9356 9.19137 13.8142 8.55689C14.7103 7.91135 15.3809 7.091 15.6416 5.99485C15.8154 5.26442 15.7617 4.55659 15.2287 3.9618C14.9203 3.61567 14.5285 3.39464 14.095 3.24795C12.8839 2.83902 11.6578 2.89077 10.4447 3.20977C8.91611 3.61165 7.51063 4.29939 6.20813 5.19208C5.45968 5.70549 4.78808 6.30782 4.25813 7.05081C4.0883 7.2982 3.93606 7.55722 3.80253 7.82595C3.34442 8.70709 3.48055 9.53398 4.10392 10.2729C4.44688 10.6793 4.8286 11.0513 5.24368 11.3837C5.82988 11.8534 6.45928 12.2683 7.06809 12.7094C7.14379 12.7695 7.21638 12.8333 7.28559 12.9008C7.26778 12.9236 7.24776 12.9447 7.22582 12.9636C7.13339 13.0168 7.04097 13.0696 6.94703 13.1203C6.26187 13.4911 5.60484 13.904 5.02517 14.4295C4.42792 14.9715 4.06474 15.615 4.1853 16.4545C4.27019 17.0438 4.59418 17.3849 5.18491 17.4487C5.50116 17.4872 5.8215 17.476 6.13429 17.4155C7.88285 17.0382 9.01708 15.2554 8.48965 13.3414C8.42987 13.1253 8.43138 13.1053 8.65139 13.0686C9.32299 12.9561 9.98856 12.9792 10.6376 13.1982C10.9741 13.3117 11.283 13.483 11.5151 13.7583C12.0033 14.337 12.0501 15.0263 11.3448 15.503C11.2974 15.5392 11.2529 15.579 11.2117 15.6221V15.6221Z" fill="#A4CADA"/>
<path d="M7.84207 14.1407C7.826 15.1373 7.14636 16.1144 6.21306 16.449C6.07699 16.4964 5.93531 16.5258 5.79162 16.5364C5.44954 16.5625 5.22952 16.3737 5.27021 16.0341C5.30498 15.7626 5.3862 15.4992 5.51032 15.2554C5.75645 14.7701 6.16333 14.4149 6.60085 14.108C6.91329 13.89 7.24884 13.7061 7.57383 13.5052C7.6743 13.4419 7.7391 13.465 7.75818 13.5861C7.78732 13.7699 7.81394 13.9553 7.84207 14.1407Z" fill="#A4CADA"/>
</svg>
