<svg width="9" height="9" viewBox="0 0 9 9" fill="none" xmlns="http://www.w3.org/2000/svg">
<path d="M4.50035 8.99855C3.52089 8.99855 2.54396 9.00181 1.56546 8.99855C1.21537 8.99906 0.875333 8.87755 0.600185 8.65363C0.325036 8.4297 0.130825 8.11642 0.0488792 7.76431C0.0182127 7.63211 0.0029385 7.49659 0.00338187 7.36063C-0.00019894 5.45371 -0.000936156 3.54636 0.0011702 1.63857C0.00338188 0.719099 0.694372 0.00261491 1.58315 0.00163432C3.52711 -0.000544772 5.47117 -0.000544772 7.41533 0.00163432C8.30538 0.00163432 8.997 0.718119 8.99826 1.63857C9.00058 3.54614 9.00058 5.4535 8.99826 7.36063C8.99826 8.28075 8.30538 8.99495 7.41533 8.99822C6.44441 9.00083 5.47254 8.99887 4.50035 8.99855Z" fill="#A4CADA"/>
<path d="M2.32938 3.58177C2.33506 3.55105 2.34012 3.51999 2.34675 3.4896C2.40658 3.21319 2.51519 2.95057 2.66713 2.71493C2.82695 2.46772 3.03987 2.26211 3.28924 2.11415C3.52892 1.9742 3.79197 1.88227 4.06459 1.84319C4.17834 1.82521 4.29303 1.81998 4.40772 1.8105C4.50661 1.80396 4.60393 1.8105 4.70156 1.81507C4.82569 1.82007 4.94917 1.83625 5.07059 1.86345C5.46593 1.94615 5.83269 2.13676 6.13282 2.41552C6.22761 2.50606 6.32461 2.59791 6.41718 2.6927C6.52303 2.80089 6.62508 2.91301 6.72871 3.02316C6.83363 3.13552 6.95964 3.2245 7.09901 3.28465C7.21888 3.33794 7.34462 3.37582 7.47342 3.39742C7.69742 3.43428 7.92695 3.4034 8.13439 3.30851C8.3036 3.23244 8.45725 3.12372 8.58715 2.98819C8.66462 2.91117 8.73613 2.828 8.80105 2.73944C8.80585 2.73132 8.80997 2.72279 8.81337 2.71395L8.82696 2.7231C8.82657 2.73407 8.82541 2.74499 8.82349 2.75579C8.79006 2.90266 8.74242 3.04567 8.68131 3.18267C8.61007 3.34807 8.52296 3.50565 8.42128 3.65303C8.26274 3.88605 8.05919 4.0825 7.82349 4.22994C7.68504 4.31281 7.53619 4.37551 7.38116 4.41625C7.24754 4.45232 7.11182 4.47951 6.97484 4.49764C6.91892 4.50516 6.86204 4.50647 6.80549 4.51039C6.75968 4.51333 6.71355 4.51954 6.66773 4.51823C6.42239 4.51392 6.17872 4.47555 5.94325 4.40416C5.69214 4.32463 5.4536 4.20757 5.2352 4.0567C5.13998 3.98996 5.05102 3.91412 4.96948 3.83019C4.84879 3.70827 4.73189 3.5821 4.61024 3.46116C4.48411 3.33341 4.34658 3.21828 4.1995 3.1173C4.07445 3.0306 3.93717 2.96445 3.79256 2.92118C3.56094 2.85715 3.31559 2.87147 3.0924 2.96204C2.85481 3.05583 2.6432 3.20873 2.47629 3.40723C2.43427 3.45528 2.39857 3.50921 2.35971 3.56053L2.34138 3.58504L2.32938 3.58177Z" fill="white"/>
<path d="M0.175507 6.25781C0.181194 6.22708 0.185933 6.19603 0.192884 6.16531C0.232814 5.98582 0.292497 5.81167 0.370766 5.64625C0.451776 5.47684 0.5542 5.31933 0.675345 5.17785C0.840862 4.98512 1.0421 4.82873 1.26713 4.71795C1.47413 4.61688 1.69475 4.54889 1.92147 4.51628C2.12979 4.48712 2.34035 4.4788 2.55021 4.49144C2.74194 4.50034 2.93183 4.53406 3.11545 4.59179C3.24496 4.63108 3.37063 4.68285 3.49081 4.74639C3.66936 4.84138 3.83525 4.95993 3.98433 5.09908C4.06837 5.17752 4.15273 5.2563 4.23298 5.33932C4.32176 5.43117 4.40644 5.52727 4.49175 5.62271C4.70416 5.8624 4.98927 6.01991 5.29996 6.06921C5.54703 6.11338 5.80127 6.07598 6.02665 5.96232C6.16428 5.89528 6.29026 5.80516 6.39947 5.6956C6.49147 5.60906 6.57527 5.51362 6.64971 5.41058C6.65521 5.40396 6.66135 5.39794 6.66804 5.3926C6.68004 5.41058 6.67056 5.42529 6.66804 5.43902C6.63509 5.57934 6.58972 5.71622 6.53249 5.84792C6.45242 6.03883 6.35003 6.21886 6.2276 6.38398C6.05914 6.61744 5.84349 6.81008 5.59569 6.94847C5.49339 7.00352 5.3858 7.04734 5.27468 7.07922C4.98881 7.16585 4.69106 7.20296 4.39349 7.18904C4.1573 7.1752 3.92401 7.12836 3.69997 7.0498C3.4478 6.96238 3.2107 6.83394 2.9976 6.66933C2.93791 6.62229 2.88114 6.57142 2.82762 6.51701C2.72399 6.41339 2.6232 6.30651 2.52115 6.20126C2.38649 6.06008 2.2397 5.93186 2.0826 5.81818C1.94215 5.71516 1.78541 5.63829 1.61941 5.59101C1.43709 5.54347 1.246 5.54538 1.0646 5.59656C0.8504 5.65585 0.652457 5.76585 0.486405 5.91787C0.378794 6.01242 0.283809 6.12135 0.203942 6.24179C0.198607 6.24886 0.192912 6.25562 0.186881 6.26206L0.175507 6.25781Z" fill="white"/>
</svg>
