<svg width="25" height="25" viewBox="0 0 25 25" fill="none" xmlns="http://www.w3.org/2000/svg">
<g clip-path="url(#clip0_3_39)">
<path d="M20.7261 24.9158H4.29725C4.2536 24.8977 4.20845 24.8835 4.16232 24.8733C3.23619 24.7496 2.36901 24.3484 1.67452 23.7222C0.980027 23.0961 0.490651 22.2744 0.270574 21.3648C0.220417 21.1631 0.183682 20.9579 0.141296 20.7541V4.2997C0.159689 4.25555 0.17411 4.20984 0.184389 4.16312C0.523477 1.81583 2.41743 0.145771 4.79528 0.141525C9.94095 0.131617 15.0869 0.131617 20.233 0.141525C20.8928 0.141525 21.5399 0.242011 22.1312 0.538518C23.9057 1.43016 24.8743 2.85396 24.8799 4.87148C24.8884 7.94412 24.8799 11.0168 24.8799 14.0894C24.8799 16.138 24.8856 18.1867 24.8799 20.2354C24.8721 22.3074 23.6253 24.0454 21.6826 24.6936C21.3739 24.7927 21.0461 24.8422 20.7261 24.9158ZM5.36891 6.93076C4.59819 8.69494 4.80376 10.2051 6.30988 11.4491L6.27597 11.5199L4.76491 11.108C4.89772 12.8305 5.83162 13.8976 7.44936 14.4177L7.43028 14.4885H6.1149C6.69347 15.9187 7.70438 16.7077 9.22321 16.8478C8.23421 17.6659 6.53876 18.457 4.31491 18.2532C4.41452 18.319 4.47739 18.3636 4.54379 18.4032C6.38406 19.5008 8.37549 19.9113 10.4983 19.6954C12.5512 19.4831 14.3837 18.7521 15.8962 17.3177C17.9533 15.3639 19.0391 12.9649 19.0737 10.1194C19.078 9.7734 19.1748 9.57031 19.4446 9.36579C19.9418 8.98708 20.3656 8.52035 20.695 7.9887L18.9798 8.46495L18.9402 8.38711C19.5902 7.9637 20.0702 7.32421 20.2959 6.58118C20.1924 6.64311 20.0856 6.69911 19.9758 6.74889C19.4199 6.95411 18.8632 7.16004 18.3016 7.34969C18.255 7.35865 18.2069 7.35694 18.1611 7.34468C18.1152 7.33243 18.0727 7.30995 18.0367 7.27892C17.0265 6.24787 15.4441 6.11129 14.3201 6.61514C13.0295 7.19471 12.2679 8.42744 12.3146 9.86257C12.3209 10.0671 12.3435 10.2716 12.3605 10.4995C9.53687 10.2886 7.23601 9.11104 5.36891 6.93076Z" fill="#DBF66F"/>
</g>
<defs>
<clipPath id="clip0_3_39">
<rect width="25" height="25" fill="white"/>
</clipPath>
</defs>
</svg>
