<?xml version="1.0" encoding="utf-8"?>
<!-- Generator: Adobe Illustrator 24.1.1, SVG Export Plug-In . SVG Version: 6.00 Build 0)  -->
<svg version="1.1" id="Layer_1" xmlns="http://www.w3.org/2000/svg" xmlns:xlink="http://www.w3.org/1999/xlink" x="0px" y="0px"
	 viewBox="0 0 1033.8 278.9" style="enable-background:new 0 0 1033.8 278.9;" xml:space="preserve">
<style type="text/css">
	.st0{fill:#7BC144;}
	.st1{enable-background:new    ;}
	.st2{fill:#231F20;}
</style>
<path class="st0" d="M210.9,152c0,32.7,0.1,64.9-0.1,97.4H23.6v-169l93.3-52.1l93.7,52.2v38.9l-93.9-50.8l-55.4,32.2v111.5h6.2
	c0.3-2.9,0.6-5.4,0.9-8.8l12.5-6.6v15.4H97l16-9.3c0.5,3.7,0.8,6.4,1.2,9.4h58.6c1-6.6,0.4-13.1,0.5-19.6s0-13.2,0-19.8v-40.5
	L210.9,152z"/>
<path class="st0" d="M113.3,181.2l-12.6,6.6c-1.4-5.4-0.8-10.3-0.5-15.6c2-1.1,4-2.3,6.1-3.4s4.2-2,7-3.3L113.3,181.2z"/>
<path class="st0" d="M113.4,111.7l-13.1,6.8v-15.9l13.1-6.8V111.7z"/>
<path class="st0" d="M113.5,188.2v15.9l-12.8,6.7c-1.4-5.5-0.9-10.2-0.6-15.6L113.5,188.2z"/>
<path class="st0" d="M113.3,134.9l-12.9,6.7v-16l12.9-6.6V134.9z"/>
<path class="st0" d="M100.3,164.9v-16l13-6.8v15.9L100.3,164.9z"/>
<path class="st0" d="M96.4,104.6v15.9l-12.3,6.6V111L96.4,104.6z"/>
<path class="st0" d="M96.5,189.9l-12.4,6.3v-16l12.4-6.2V189.9z"/>
<path class="st0" d="M84.1,157.2l11.9-6.1c1.7,5.3,0.8,10.2,0.7,15.6l-12.6,6.7V157.2z"/>
<path class="st0" d="M83.9,149.9v-15.9l12.6-6.3v15.7c-1.8,1.1-3.9,2.3-6,3.4C88.7,147.8,86.7,148.7,83.9,149.9z"/>
<path class="st0" d="M96.6,197v16L84,219.4v-16L96.6,197z"/>
<path class="st0" d="M68.2,119.3l12-6.4v15.9l-12,6.4V119.3z"/>
<path class="st0" d="M80.7,198.1c-4.2,2.2-8.1,4.1-12.5,6.4v-15.9l11.5-6C81.7,187.8,80.4,192.7,80.7,198.1z"/>
<path class="st0" d="M68.1,142.4l12.3-6.4v15.9l-12.3,6.5C67.8,153.1,67.7,147.8,68.1,142.4z"/>
<path class="st0" d="M80.6,159.1V175l-12.4,6.5v-16L80.6,159.1z"/>
<g class="st1">
	<path class="st2" d="M294.8,127.7h-34.3v18.8h30.4v17.5h-30.4v20.4h34.3v18.2h-57v-93.1h57V127.7z"/>
	<path class="st2" d="M337.6,127.6c11,0,18.8,5,22.8,11.5v-10.5h22.7v74h-22.7v-10.5c-4.1,6.5-11.9,11.5-22.9,11.5
		c-18,0-32.5-14.8-32.5-38.2C305,142.2,319.4,127.6,337.6,127.6z M344.2,147.4c-8.5,0-16.2,6.4-16.2,18.2c0,11.8,7.7,18.4,16.2,18.4
		c8.6,0,16.2-6.5,16.2-18.3C360.4,153.9,352.8,147.4,344.2,147.4z"/>
	<path class="st2" d="M429.6,203.7c-19.8,0-33-11-34.1-25.3h22.4c0.5,5.2,5.2,8.6,11.4,8.6c5.8,0,8.9-2.7,8.9-6
		c0-11.9-40.3-3.3-40.3-30.5c0-12.6,10.7-22.9,30.1-22.9c19.1,0,29.7,10.6,31.2,25.2h-20.9c-0.7-5-4.5-8.4-10.9-8.4
		c-5.3,0-8.2,2.1-8.2,5.7c0,11.8,40,3.4,40.4,31C459.6,194,448.2,203.7,429.6,203.7z"/>
	<path class="st2" d="M524.5,128.7h24.5l-46.4,109.1h-24.4l17-37.7l-30.1-71.5h25.3l17.1,46.3L524.5,128.7z"/>
</g>
<g class="st1">
	<path class="st2" d="M558.5,104.5h12.1v35.9c4.8-7.7,13.8-11.8,24-11.8c16.2,0,29,10.3,29,31.2v42.8h-11.9v-41.1
		c0-14.8-8.1-22.4-20.3-22.4c-12.3,0-20.8,7.7-20.8,23.3v40.2h-12.1V104.5z"/>
	<path class="st2" d="M675,203.8c-20.5,0-36.2-14.6-36.2-37.7c0-22.9,16.2-37.4,36.7-37.4c20.7,0,36.7,14.5,36.7,37.4
		C712.3,189.3,695.7,203.8,675,203.8z M675,193.2c12.6,0,24.9-8.6,24.9-27c0-18.3-12.1-26.9-24.5-26.9c-12.7,0-24.3,8.6-24.3,26.9
		C651.1,184.6,662.4,193.2,675,193.2z"/>
	<path class="st2" d="M833.1,161.6c0-14.8-8-22.4-19.9-22.4c-12.2,0-20.6,7.8-20.6,23.5v40h-11.9v-41.1c0-14.8-8-22.4-19.9-22.4
		c-12.2,0-20.6,7.8-20.6,23.5v40h-12.1V130h12.1v10.5c4.8-7.7,13.4-11.8,22.9-11.8c11.9,0,21.9,5.3,26.6,16.2
		c4.2-10.5,14.6-16.2,25.7-16.2c16.6,0,29.4,10.3,29.4,31.2v42.8h-11.9V161.6z"/>
	<path class="st2" d="M896.2,203.8c-20.7,0-35.9-14.6-35.9-37.7c0-22.9,14.7-37.4,35.9-37.4c21.1,0,34.9,14.8,34.9,34.7
		c0,2.7-0.1,4.8-0.4,7.3h-58.1c0.9,14.7,11.3,22.8,23.6,22.8c10.9,0,17.8-5.6,20.4-13.4h13C925.9,193.5,914.2,203.8,896.2,203.8z
		 M872.7,161h45.9c0.1-14.2-10.5-22-22.9-22C883.8,139,874,146.8,872.7,161z"/>
	<path class="st2" d="M972.7,203.8c-17,0-28.9-9.3-29.7-22.5h12.5c0.7,7,6.9,12.3,17.1,12.3c9.5,0,14.8-4.8,14.8-10.7
		c0-16.2-43-6.8-43-33.8c0-11.1,10.5-20.3,26.6-20.3c16,0,26.6,8.6,27.4,22.8h-12.1c-0.5-7.3-6.1-12.6-15.8-12.6
		c-8.9,0-14.2,4.2-14.2,10.1c0,17.2,42.2,7.8,42.7,33.8C999.2,194.8,988.7,203.8,972.7,203.8z"/>
</g>
</svg>
