<svg width="120" height="42" viewBox="0 0 120 42" fill="none" xmlns="http://www.w3.org/2000/svg">
<path d="M42.21 27H39.6611V16.6465C39.6611 15.9258 39.8018 15.3193 40.083 14.8271C40.3701 14.3291 40.7715 13.9541 41.2871 13.7021C41.8086 13.4443 42.4268 13.3154 43.1416 13.3154C43.376 13.3154 43.6016 13.333 43.8184 13.3682C44.0352 13.3975 44.2461 13.4355 44.4512 13.4824L44.4248 15.3896C44.3135 15.3604 44.1963 15.3398 44.0732 15.3281C43.9502 15.3164 43.8066 15.3105 43.6426 15.3105C43.3379 15.3105 43.0771 15.3633 42.8604 15.4688C42.6494 15.5684 42.4883 15.7178 42.377 15.917C42.2656 16.1162 42.21 16.3594 42.21 16.6465V27ZM44.1084 17.4902V19.2832H38.2461V17.4902H44.1084ZM50.5684 24.8555V20.6191C50.5684 20.3145 50.5186 20.0537 50.4189 19.8369C50.3193 19.6143 50.1641 19.4414 49.9531 19.3184C49.748 19.1953 49.4814 19.1338 49.1533 19.1338C48.8721 19.1338 48.6289 19.1836 48.4238 19.2832C48.2188 19.377 48.0605 19.5146 47.9492 19.6963C47.8379 19.8721 47.7822 20.0801 47.7822 20.3203H45.251C45.251 19.916 45.3447 19.5322 45.5322 19.1689C45.7197 18.8057 45.9922 18.4863 46.3496 18.2109C46.707 17.9297 47.1318 17.71 47.624 17.5518C48.1221 17.3936 48.6787 17.3145 49.2939 17.3145C50.0322 17.3145 50.6885 17.4375 51.2627 17.6836C51.8369 17.9297 52.2881 18.2988 52.6162 18.791C52.9502 19.2832 53.1172 19.8984 53.1172 20.6367V24.7061C53.1172 25.2275 53.1494 25.6553 53.2139 25.9893C53.2783 26.3174 53.3721 26.6045 53.4951 26.8506V27H50.9375C50.8145 26.7422 50.7207 26.4199 50.6562 26.0332C50.5977 25.6406 50.5684 25.248 50.5684 24.8555ZM50.9023 21.208L50.9199 22.6406H49.5049C49.1709 22.6406 48.8809 22.6787 48.6348 22.7549C48.3887 22.8311 48.1865 22.9395 48.0283 23.0801C47.8701 23.2148 47.7529 23.373 47.6768 23.5547C47.6064 23.7363 47.5713 23.9355 47.5713 24.1523C47.5713 24.3691 47.6211 24.5654 47.7207 24.7412C47.8203 24.9111 47.9639 25.0459 48.1514 25.1455C48.3389 25.2393 48.5586 25.2861 48.8105 25.2861C49.1914 25.2861 49.5225 25.21 49.8037 25.0576C50.085 24.9053 50.3018 24.7178 50.4541 24.4951C50.6123 24.2725 50.6943 24.0615 50.7002 23.8623L51.3682 24.9346C51.2744 25.1748 51.1455 25.4238 50.9814 25.6816C50.8232 25.9395 50.6211 26.1826 50.375 26.4111C50.1289 26.6338 49.833 26.8184 49.4873 26.9648C49.1416 27.1055 48.7314 27.1758 48.2568 27.1758C47.6533 27.1758 47.1055 27.0557 46.6133 26.8154C46.127 26.5693 45.7402 26.2324 45.4531 25.8047C45.1719 25.3711 45.0312 24.8789 45.0312 24.3281C45.0312 23.8301 45.125 23.3877 45.3125 23.001C45.5 22.6143 45.7754 22.2891 46.1387 22.0254C46.5078 21.7559 46.9678 21.5537 47.5186 21.4189C48.0693 21.2783 48.708 21.208 49.4346 21.208H50.9023ZM60.21 24.3721C60.21 24.1904 60.1572 24.0264 60.0518 23.8799C59.9463 23.7334 59.75 23.5986 59.4629 23.4756C59.1816 23.3467 58.7744 23.2295 58.2412 23.124C57.7607 23.0186 57.3125 22.8867 56.8965 22.7285C56.4863 22.5645 56.1289 22.3682 55.8242 22.1396C55.5254 21.9111 55.291 21.6416 55.1211 21.3311C54.9512 21.0146 54.8662 20.6543 54.8662 20.25C54.8662 19.8516 54.9512 19.4766 55.1211 19.125C55.2969 18.7734 55.5459 18.4629 55.8682 18.1934C56.1963 17.918 56.5947 17.7041 57.0635 17.5518C57.5381 17.3936 58.0713 17.3145 58.6631 17.3145C59.4893 17.3145 60.1982 17.4463 60.79 17.71C61.3877 17.9736 61.8447 18.3369 62.1611 18.7998C62.4834 19.2568 62.6445 19.7783 62.6445 20.3643H60.1133C60.1133 20.1182 60.0605 19.8984 59.9551 19.7051C59.8555 19.5059 59.6973 19.3506 59.4805 19.2393C59.2695 19.1221 58.9941 19.0635 58.6543 19.0635C58.373 19.0635 58.1299 19.1133 57.9248 19.2129C57.7197 19.3066 57.5615 19.4355 57.4502 19.5996C57.3447 19.7578 57.292 19.9336 57.292 20.127C57.292 20.2734 57.3213 20.4053 57.3799 20.5225C57.4443 20.6338 57.5469 20.7363 57.6875 20.8301C57.8281 20.9238 58.0098 21.0117 58.2324 21.0938C58.4609 21.1699 58.7422 21.2402 59.0762 21.3047C59.7617 21.4453 60.374 21.6299 60.9131 21.8584C61.4521 22.0811 61.8799 22.3857 62.1963 22.7725C62.5127 23.1533 62.6709 23.6543 62.6709 24.2754C62.6709 24.6973 62.5771 25.084 62.3896 25.4355C62.2021 25.7871 61.9326 26.0947 61.5811 26.3584C61.2295 26.6162 60.8076 26.8184 60.3154 26.9648C59.8291 27.1055 59.2812 27.1758 58.6719 27.1758C57.7871 27.1758 57.0371 27.0176 56.4219 26.7012C55.8125 26.3848 55.3496 25.9834 55.0332 25.4971C54.7227 25.0049 54.5674 24.501 54.5674 23.9854H56.9668C56.9785 24.3311 57.0664 24.6094 57.2305 24.8203C57.4004 25.0312 57.6143 25.1836 57.8721 25.2773C58.1357 25.3711 58.4199 25.418 58.7246 25.418C59.0527 25.418 59.3252 25.374 59.542 25.2861C59.7588 25.1924 59.9229 25.0693 60.0342 24.917C60.1514 24.7588 60.21 24.5771 60.21 24.3721ZM68.9727 17.4902V19.2832H63.4355V17.4902H68.9727ZM64.8066 15.1436H67.3379V24.1348C67.3379 24.4102 67.373 24.6211 67.4434 24.7676C67.5195 24.9141 67.6309 25.0166 67.7773 25.0752C67.9238 25.1279 68.1084 25.1543 68.3311 25.1543C68.4893 25.1543 68.6299 25.1484 68.7529 25.1367C68.8818 25.1191 68.9902 25.1016 69.0781 25.084L69.0869 26.9473C68.8701 27.0176 68.6357 27.0732 68.3838 27.1143C68.1318 27.1553 67.8535 27.1758 67.5488 27.1758C66.9922 27.1758 66.5059 27.085 66.0898 26.9033C65.6797 26.7158 65.3633 26.417 65.1406 26.0068C64.918 25.5967 64.8066 25.0576 64.8066 24.3896V15.1436ZM72.2949 13.5V27H70.6689V13.5H72.2949ZM71.9082 21.8848L71.2314 21.8584C71.2373 21.208 71.334 20.6074 71.5215 20.0566C71.709 19.5 71.9727 19.0166 72.3125 18.6064C72.6523 18.1963 73.0566 17.8799 73.5254 17.6572C74 17.4287 74.5244 17.3145 75.0986 17.3145C75.5674 17.3145 75.9893 17.3789 76.3643 17.5078C76.7393 17.6309 77.0586 17.8301 77.3223 18.1055C77.5918 18.3809 77.7969 18.7383 77.9375 19.1777C78.0781 19.6113 78.1484 20.1416 78.1484 20.7686V27H76.5137V20.751C76.5137 20.2529 76.4404 19.8545 76.2939 19.5557C76.1475 19.251 75.9336 19.0312 75.6523 18.8965C75.3711 18.7559 75.0254 18.6855 74.6152 18.6855C74.2109 18.6855 73.8418 18.7705 73.5078 18.9404C73.1797 19.1104 72.8955 19.3447 72.6553 19.6436C72.4209 19.9424 72.2363 20.2852 72.1016 20.6719C71.9727 21.0527 71.9082 21.457 71.9082 21.8848ZM80.1523 22.3506V22.1484C80.1523 21.4629 80.252 20.8271 80.4512 20.2412C80.6504 19.6494 80.9375 19.1367 81.3125 18.7031C81.6875 18.2637 82.1416 17.9238 82.6748 17.6836C83.208 17.4375 83.8057 17.3145 84.4678 17.3145C85.1357 17.3145 85.7363 17.4375 86.2695 17.6836C86.8086 17.9238 87.2656 18.2637 87.6406 18.7031C88.0215 19.1367 88.3115 19.6494 88.5107 20.2412C88.71 20.8271 88.8096 21.4629 88.8096 22.1484V22.3506C88.8096 23.0361 88.71 23.6719 88.5107 24.2578C88.3115 24.8438 88.0215 25.3564 87.6406 25.7959C87.2656 26.2295 86.8115 26.5693 86.2783 26.8154C85.751 27.0557 85.1533 27.1758 84.4854 27.1758C83.8174 27.1758 83.2168 27.0557 82.6836 26.8154C82.1504 26.5693 81.6934 26.2295 81.3125 25.7959C80.9375 25.3564 80.6504 24.8438 80.4512 24.2578C80.252 23.6719 80.1523 23.0361 80.1523 22.3506ZM81.7783 22.1484V22.3506C81.7783 22.8252 81.834 23.2734 81.9453 23.6953C82.0566 24.1113 82.2236 24.4805 82.4463 24.8027C82.6748 25.125 82.959 25.3799 83.2988 25.5674C83.6387 25.749 84.0342 25.8398 84.4854 25.8398C84.9307 25.8398 85.3203 25.749 85.6543 25.5674C85.9941 25.3799 86.2754 25.125 86.498 24.8027C86.7207 24.4805 86.8877 24.1113 86.999 23.6953C87.1162 23.2734 87.1748 22.8252 87.1748 22.3506V22.1484C87.1748 21.6797 87.1162 21.2373 86.999 20.8213C86.8877 20.3994 86.7178 20.0273 86.4893 19.7051C86.2666 19.377 85.9854 19.1191 85.6455 18.9316C85.3115 18.7441 84.9189 18.6504 84.4678 18.6504C84.0225 18.6504 83.6299 18.7441 83.29 18.9316C82.9561 19.1191 82.6748 19.377 82.4463 19.7051C82.2236 20.0273 82.0566 20.3994 81.9453 20.8213C81.834 21.2373 81.7783 21.6797 81.7783 22.1484ZM92.4658 19.3799V27H90.8311V17.4902H92.3779L92.4658 19.3799ZM92.1318 21.8848L91.376 21.8584C91.3818 21.208 91.4668 20.6074 91.6309 20.0566C91.7949 19.5 92.0381 19.0166 92.3604 18.6064C92.6826 18.1963 93.084 17.8799 93.5645 17.6572C94.0449 17.4287 94.6016 17.3145 95.2344 17.3145C95.6797 17.3145 96.0898 17.3789 96.4648 17.5078C96.8398 17.6309 97.165 17.8271 97.4404 18.0967C97.7158 18.3662 97.9297 18.7119 98.082 19.1338C98.2344 19.5557 98.3105 20.0654 98.3105 20.6631V27H96.6846V20.7422C96.6846 20.2441 96.5996 19.8457 96.4297 19.5469C96.2656 19.248 96.0312 19.0312 95.7266 18.8965C95.4219 18.7559 95.0645 18.6855 94.6543 18.6855C94.1738 18.6855 93.7725 18.7705 93.4502 18.9404C93.1279 19.1104 92.8701 19.3447 92.6768 19.6436C92.4834 19.9424 92.3428 20.2852 92.2549 20.6719C92.1729 21.0527 92.1318 21.457 92.1318 21.8848ZM98.293 20.9883L97.2031 21.3223C97.209 20.8008 97.2939 20.2998 97.458 19.8193C97.6279 19.3389 97.8711 18.9111 98.1875 18.5361C98.5098 18.1611 98.9053 17.8652 99.374 17.6484C99.8428 17.4258 100.379 17.3145 100.982 17.3145C101.492 17.3145 101.943 17.3818 102.336 17.5166C102.734 17.6514 103.068 17.8594 103.338 18.1406C103.613 18.416 103.821 18.7705 103.962 19.2041C104.103 19.6377 104.173 20.1533 104.173 20.751V27H102.538V20.7334C102.538 20.2002 102.453 19.7871 102.283 19.4941C102.119 19.1953 101.885 18.9873 101.58 18.8701C101.281 18.7471 100.924 18.6855 100.508 18.6855C100.15 18.6855 99.834 18.7471 99.5586 18.8701C99.2832 18.9932 99.0518 19.1631 98.8643 19.3799C98.6768 19.5908 98.5332 19.834 98.4336 20.1094C98.3398 20.3848 98.293 20.6777 98.293 20.9883ZM110.58 27.1758C109.918 27.1758 109.317 27.0645 108.778 26.8418C108.245 26.6133 107.785 26.2939 107.398 25.8838C107.018 25.4736 106.725 24.9873 106.52 24.4248C106.314 23.8623 106.212 23.2471 106.212 22.5791V22.21C106.212 21.4365 106.326 20.748 106.555 20.1445C106.783 19.5352 107.094 19.0195 107.486 18.5977C107.879 18.1758 108.324 17.8564 108.822 17.6396C109.32 17.4229 109.836 17.3145 110.369 17.3145C111.049 17.3145 111.635 17.4316 112.127 17.666C112.625 17.9004 113.032 18.2285 113.349 18.6504C113.665 19.0664 113.899 19.5586 114.052 20.127C114.204 20.6895 114.28 21.3047 114.28 21.9727V22.7021H107.179V21.375H112.654V21.252C112.631 20.8301 112.543 20.4199 112.391 20.0215C112.244 19.623 112.01 19.2949 111.688 19.0371C111.365 18.7793 110.926 18.6504 110.369 18.6504C110 18.6504 109.66 18.7295 109.35 18.8877C109.039 19.04 108.772 19.2686 108.55 19.5732C108.327 19.8779 108.154 20.25 108.031 20.6895C107.908 21.1289 107.847 21.6357 107.847 22.21V22.5791C107.847 23.0303 107.908 23.4551 108.031 23.8535C108.16 24.2461 108.345 24.5918 108.585 24.8906C108.831 25.1895 109.127 25.4238 109.473 25.5938C109.824 25.7637 110.223 25.8486 110.668 25.8486C111.242 25.8486 111.729 25.7314 112.127 25.4971C112.525 25.2627 112.874 24.9492 113.173 24.5566L114.157 25.3389C113.952 25.6494 113.691 25.9453 113.375 26.2266C113.059 26.5078 112.669 26.7363 112.206 26.9121C111.749 27.0879 111.207 27.1758 110.58 27.1758Z" fill="black"/>
<path d="M25.3704 3.40918H23.3276C22.5911 3.40918 21.9941 4.00674 21.9941 4.74386V12.1765C21.9941 12.9136 22.5911 13.5112 23.3276 13.5112H25.3704C26.1069 13.5112 26.7038 12.9136 26.7038 12.1765V4.74386C26.7038 4.00674 26.1069 3.40918 25.3704 3.40918Z" fill="#8DD69C"/>
<path d="M17.7314 41.3259V34.2846H26.391L18.8801 41.8028C18.786 41.8971 18.666 41.9612 18.5354 41.9871C18.4048 42.013 18.2695 41.9998 18.1465 41.9487C18.0235 41.8977 17.9184 41.8112 17.8446 41.7003C17.7707 41.5896 17.7313 41.4592 17.7314 41.3259Z" fill="#8DD69C"/>
<path d="M28.7306 12.9991L16.2687 0.524119C15.9317 0.188442 15.4755 0 15.0001 0C14.5246 0 14.0685 0.188442 13.7315 0.524119L1.26975 12.9991C0.509299 13.8456 0.061218 14.9272 0 16.064V18.2614C6.8083 23.3316 15.0713 26.0635 23.5572 26.0499C25.7153 26.0502 27.8699 25.8747 29.9996 25.5249V16.064C29.9377 14.9275 29.4901 13.8462 28.7306 12.9991Z" fill="#8DD69C"/>
<path d="M23.5577 28.0703C15.0718 28.0837 6.80883 25.3518 0.000488281 20.2818V32.1517C0.00202826 32.6276 0.191541 33.0834 0.527657 33.4197C0.863771 33.7563 1.3192 33.9459 1.79453 33.9474H28.2062C28.6815 33.9459 29.1369 33.7561 29.4731 33.4197C29.8091 33.0832 29.9985 32.6274 30.0001 32.1517V27.5453C27.8704 27.8951 25.7158 28.0707 23.5577 28.0703Z" fill="#8DD69C"/>
</svg>
